<svg xmlns="http://www.w3.org/2000/svg" xmlns:xlink="http://www.w3.org/1999/xlink" width="1080" zoomAndPan="magnify" viewBox="0 0 810 809.999993" height="1080" preserveAspectRatio="xMidYMid meet" version="1.0"><defs><clipPath id="id1"><path d="M 81 189.980469 L 728 189.980469 L 728 619.730469 L 81 619.730469 Z M 81 189.980469 " clip-rule="nonzero"/></clipPath><clipPath id="id2"><path d="M 442 189.980469 L 728 189.980469 L 728 392 L 442 392 Z M 442 189.980469 " clip-rule="nonzero"/></clipPath><clipPath id="id3"><path d="M 450 189.980469 L 728 189.980469 L 728 359 L 450 359 Z M 450 189.980469 " clip-rule="nonzero"/></clipPath><clipPath id="id4"><path d="M 81 430 L 386 430 L 386 619.730469 L 81 619.730469 Z M 81 430 " clip-rule="nonzero"/></clipPath><clipPath id="id5"><path d="M 81 442 L 377 442 L 377 619.730469 L 81 619.730469 Z M 81 442 " clip-rule="nonzero"/></clipPath><clipPath id="id6"><path d="M 81 189.980469 L 370 189.980469 L 370 392 L 81 392 Z M 81 189.980469 " clip-rule="nonzero"/></clipPath><clipPath id="id7"><path d="M 81 189.980469 L 316 189.980469 L 316 359 L 81 359 Z M 81 189.980469 " clip-rule="nonzero"/></clipPath><clipPath id="id8"><path d="M 430 430 L 728 430 L 728 619.730469 L 430 619.730469 Z M 430 430 " clip-rule="nonzero"/></clipPath><clipPath id="id9"><path d="M 483 442 L 728 442 L 728 619.730469 L 483 619.730469 Z M 483 442 " clip-rule="nonzero"/></clipPath><clipPath id="id10"><path d="M 360 189.980469 L 450 189.980469 L 450 619.730469 L 360 619.730469 Z M 360 189.980469 " clip-rule="nonzero"/></clipPath><clipPath id="id11"><path d="M 379 189.980469 L 431 189.980469 L 431 619.730469 L 379 619.730469 Z M 379 189.980469 " clip-rule="nonzero"/></clipPath></defs><g clip-path="url(#id1)"><path fill="#204376" d="M 727.871094 189.976562 L 727.871094 619.707031 L 81.984375 619.707031 L 81.984375 189.976562 L 727.871094 189.976562 " fill-opacity="1" fill-rule="nonzero"/></g><g clip-path="url(#id2)"><path fill="#ffffff" d="M 727.828125 189.949219 L 727.828125 237.234375 L 571.878906 336.089844 L 519.722656 369.144531 L 485 391.136719 L 471.050781 369.144531 L 464.023438 358.082031 L 450.289062 336.4375 L 450.089844 336.089844 L 449.285156 334.835938 L 442.738281 324.542969 L 449.285156 320.402344 L 655.066406 189.949219 L 727.828125 189.949219 " fill-opacity="1" fill-rule="nonzero"/></g><g clip-path="url(#id3)"><path fill="#ee2828" d="M 727.828125 189.949219 L 727.828125 190.882812 L 498.726562 336.089844 L 464.023438 358.082031 L 450.289062 336.4375 L 450.851562 336.089844 L 681.414062 189.949219 L 727.828125 189.949219 " fill-opacity="1" fill-rule="nonzero"/></g><g clip-path="url(#id4)"><path fill="#ffffff" d="M 385.300781 473.984375 L 379.246094 477.769531 L 360.539062 489.4375 L 151.972656 619.707031 L 81.984375 619.707031 L 81.984375 570.496094 L 236.386719 473.558594 L 289.0625 440.511719 L 304.332031 430.882812 L 309.253906 438.621094 L 310.386719 440.511719 L 311.863281 442.835938 L 342.460938 455.769531 L 360.539062 463.507812 L 371.230469 468 L 379.246094 471.449219 L 384.308594 473.558594 L 385.300781 473.984375 " fill-opacity="1" fill-rule="nonzero"/></g><g clip-path="url(#id5)"><path fill="#ee2828" d="M 376.78125 464.492188 L 371.230469 468 L 362.441406 473.558594 L 360.539062 474.683594 L 360.460938 474.753906 L 129.59375 619.707031 L 81.984375 619.707031 L 81.984375 619.351562 L 314.242188 473.558594 L 342.460938 455.769531 L 360.460938 444.453125 L 360.539062 444.386719 L 363.140625 442.835938 L 375.3125 462.234375 L 376.78125 464.492188 " fill-opacity="1" fill-rule="nonzero"/></g><g clip-path="url(#id6)"><path fill="#ffffff" d="M 369.050781 324.53125 L 361.664062 336.132812 L 361.445312 336.410156 L 360.539062 337.808594 L 360.460938 337.957031 L 347.734375 358.054688 L 340.695312 369.171875 L 326.777344 391.171875 L 292.023438 369.171875 L 239.90625 336.132812 L 81.984375 235.957031 L 81.984375 189.976562 L 156.675781 189.976562 L 360.460938 319.113281 L 360.539062 319.183594 L 369.050781 324.53125 " fill-opacity="1" fill-rule="nonzero"/></g><g clip-path="url(#id7)"><path fill="#ee2828" d="M 315.089844 336.410156 L 314.105469 337.957031 L 301.371094 358.054688 L 266.632812 336.132812 L 81.984375 219.082031 L 81.984375 189.976562 L 83.949219 189.976562 L 314.105469 335.847656 L 314.539062 336.132812 L 315.089844 336.410156 " fill-opacity="1" fill-rule="nonzero"/></g><g clip-path="url(#id8)"><path fill="#ffffff" d="M 656.890625 619.707031 L 449.3125 490.570312 L 430.53125 478.902344 L 440.375 473.558594 L 449.3125 468.710938 L 497.007812 442.835938 L 497.636719 441.785156 L 498.476562 440.511719 L 504.523438 430.882812 L 519.789062 440.511719 L 572.476562 473.558594 L 727.871094 571.058594 L 727.871094 619.707031 L 656.890625 619.707031 " fill-opacity="1" fill-rule="nonzero"/></g><g clip-path="url(#id9)"><path fill="#ee2828" d="M 727.871094 587.785156 L 727.871094 619.707031 L 497.699219 473.558594 L 497.636719 473.480469 L 483.359375 464.492188 L 484.835938 462.234375 L 497.007812 442.835938 L 497.636719 443.261719 L 545.886719 473.558594 L 727.871094 587.785156 " fill-opacity="1" fill-rule="nonzero"/></g><path fill="#ffffff" d="M 727.828125 473.535156 L 81.960938 473.535156 L 81.960938 336.089844 L 727.828125 336.089844 L 727.828125 473.535156 " fill-opacity="1" fill-rule="nonzero"/><g clip-path="url(#id10)"><path fill="#ffffff" d="M 449.285156 189.949219 L 449.285156 619.683594 L 360.503906 619.683594 L 360.503906 189.949219 L 449.285156 189.949219 " fill-opacity="1" fill-rule="nonzero"/></g><path fill="#ee2828" d="M 727.828125 440.488281 L 81.960938 440.488281 L 81.960938 369.144531 L 727.828125 369.144531 L 727.828125 440.488281 " fill-opacity="1" fill-rule="nonzero"/><g clip-path="url(#id11)"><path fill="#ee2828" d="M 430.53125 189.949219 L 430.53125 619.683594 L 379.257812 619.683594 L 379.257812 189.949219 L 430.53125 189.949219 " fill-opacity="1" fill-rule="nonzero"/></g></svg>